# xmcd
#
# Track frame offsets:
#	150
#	58237
#	108478
#	132842
#	154449
#	180480
#	231986
#	284311
#
# Disc length: 4149 seconds
#
# Revision: 1
# Processed by: cddbd v1.5.2PL0 Copyright (c) Steve Scherf et al.
# Submitted via: audiograbber 1.83.01
#
DISCID=73103308
DTITLE=Grateful Dead - 78-10-18 Winterland Arena, San Francisco CA
DYEAR=1900
DGENRE=
TTITLE0=Terrapin Station
TTITLE1=Playing In The Band
TTITLE2=Drums
TTITLE3=Drums (with Lee Oskar)
TTITLE4=Space > Mojo Jam
TTITLE5=Wharf Rat
TTITLE6=Truckin'
TTITLE7=I Need A Miracle
EXTD=
EXTT0=
EXTT1=
EXTT2=
EXTT3=
EXTT4=
EXTT5=
EXTT6=
EXTT7=
PLAYORDER=
